<?xml version="1.0" standalone="no"?>
<svg viewBox="0 0 200 200" xmlns="http://www.w3.org/2000/svg">
  <path fill="#8A3FFC" d="M33.3,-52.6C43.2,-45.5,51.2,-36.3,57.3,-25.4C63.5,-14.6,67.6,-2.1,69.5,12.5C71.3,27.2,70.8,44,62.4,54.6C54.1,65.2,37.9,69.6,22.6,71.6C7.4,73.6,-7,73.2,-23.2,71.8C-39.4,70.3,-57.5,67.9,-69.9,58.1C-82.3,48.2,-89.1,31,-87.4,15.2C-85.6,-0.7,-75.3,-15.2,-66.7,-29.1C-58.2,-43,-51.5,-56.3,-40.7,-63C-29.8,-69.7,-14.9,-69.8,-1.6,-67.3C11.7,-64.8,23.4,-59.7,33.3,-52.6Z" transform="translate(100 100)" />
</svg>
