<svg id="visual" viewBox="0 0 960 540" width="960" height="540" xmlns="http://www.w3.org/2000/svg" xmlns:xlink="http://www.w3.org/1999/xlink" version="1.1"><path d="M0 380L20 396.3C40 412.7 80 445.3 120 460C160 474.7 200 471.3 240 460.2C280 449 320 430 360 417C400 404 440 397 480 404.8C520 412.7 560 435.3 600 439.3C640 443.3 680 428.7 720 418.3C760 408 800 402 840 400C880 398 920 400 940 401L960 402L960 541L940 541C920 541 880 541 840 541C800 541 760 541 720 541C680 541 640 541 600 541C560 541 520 541 480 541C440 541 400 541 360 541C320 541 280 541 240 541C200 541 160 541 120 541C80 541 40 541 20 541L0 541Z" fill="#002233" stroke-linecap="round" stroke-linejoin="miter"></path></svg>